<svg
                width="156"
                height="111"
                viewBox="0 0 156 111"
                fill="none"
                xmlns="http://www.w3.org/2000/svg"
              >
                <path
                  fill-rule="evenodd"
                  clip-rule="evenodd"
                  d="M73.9017 0.286392C64.8238 1.61258 57.5634 7.86927 54.7979 16.7493C53.7674 20.0576 53.7656 26.259 54.7937 29.5804C57.8897 39.5823 66.6934 46.0913 77.1492 46.1087C81.1652 46.1154 83.6421 45.5475 87.2967 43.7817C92.1728 41.4257 95.4706 38.1479 97.9533 33.189C99.8107 29.4799 100.353 26.7912 100.18 22.1475C100.068 19.153 99.8802 17.9539 99.2123 15.9856C98.0297 12.4998 96.2277 9.6143 93.5683 6.94788C89.8242 3.19386 85.4033 1.01349 80.0381 0.274783C77.3567 -0.0942644 76.4975 -0.0927363 73.9017 0.286392ZM82.8785 6.04175C88.3783 7.92945 92.7139 12.2905 94.4876 17.7184C95.4383 20.6289 95.5117 25.4772 94.6436 28.0529C92.4217 34.6457 87.8994 38.9395 81.4294 40.5984C75.5246 42.1127 69.3136 40.4734 64.7138 36.1869C62.3125 33.9494 60.93 31.8158 59.8057 28.6135C58.7627 25.6425 58.7069 21.0007 59.678 17.9713C61.6165 11.9233 67.3114 6.69553 73.2844 5.48055C75.7628 4.97647 80.599 5.25936 82.8785 6.04175ZM121.271 16.2889C115.104 17.6854 109.758 22.6055 107.823 28.6639C107.079 30.9934 106.929 35.9297 107.535 38.1345C108.361 41.1391 109.994 43.9491 112.234 46.2169C114.709 48.7229 116.389 49.7974 119.459 50.8388C124.075 52.4048 128.709 52.0446 133.33 49.7607C145.452 43.7695 146.58 26.7557 135.365 19.0727C131.369 16.3354 125.865 15.2484 121.271 16.2889ZM27.1403 17.5293C22.5935 18.5179 18.4231 21.3435 15.8764 25.1613C11.0689 32.3681 12.0217 41.7122 18.1848 47.8012C21.3644 50.9424 26.544 53.0934 30.9271 53.0934C38.515 53.0934 45.8144 47.6711 48.1859 40.273C49.1457 37.2785 49.0854 32.6238 48.0482 29.6308C46.9601 26.4915 45.5762 24.3331 43.2163 22.095C38.8667 17.9695 32.9037 16.2761 27.1403 17.5293ZM128.909 21.5179C131.232 22.208 132.828 23.2183 134.656 25.1567C140.701 31.5644 138.63 41.7266 130.504 45.5396C125.195 48.0306 118.358 46.3339 114.803 41.6426C112.897 39.128 112.3 37.2421 112.291 33.7047C112.284 30.8922 112.361 30.4853 113.26 28.5802C114.85 25.2126 117.856 22.5887 121.423 21.4547C123.152 20.9051 126.953 20.9371 128.909 21.5179ZM36.2593 23.3656C39.9203 25.1131 42.1654 27.7062 43.3217 31.5231C45.1435 37.5375 42.1711 44.0301 36.3428 46.7665C34.6176 47.5764 33.8288 47.7548 31.5365 47.8541C27.1988 48.0419 24.0399 46.7258 21.0664 43.4909C16.8097 38.861 16.8097 31.298 21.0664 26.6681C24.0558 23.416 26.9794 22.1863 31.3841 22.3275C33.8784 22.4075 34.5527 22.5511 36.2593 23.3656ZM74.3469 49.336C65.0182 50.259 56.0853 54.156 49.5717 60.1438L47.4964 62.0517L44.5442 60.6513C40.9469 58.9453 38.4876 58.1889 34.8912 57.6827C20.5935 55.6703 6.31248 64.5238 1.62222 78.3081C0.379047 81.961 0 85.0682 0 91.6026C0 97.6158 0.003047 97.6436 0.851333 99.2717C1.47109 100.461 2.107 101.157 3.18839 101.827L4.6741 102.748L20.1249 102.835L35.5753 102.922L35.773 104.162C36.0564 105.938 36.9394 107.506 38.4038 108.832C40.991 111.176 37.7109 110.997 78.0033 110.997C118.296 110.997 115.016 111.176 117.603 108.832C119.337 107.262 120.113 105.619 120.29 103.146L120.436 101.099L135.708 101.005C146.564 100.938 151.212 100.807 151.783 100.551C153.116 99.9563 154.849 98.2467 155.438 96.9465C155.914 95.8971 155.994 94.8639 156 89.7281C156.007 83.2322 155.629 80.131 154.384 76.4751C151.209 67.1533 143.852 59.9364 134.518 56.9855C126.094 54.3228 116.243 55.5054 108.954 60.0543L107.465 60.983L105.578 59.3779C96.9435 52.0333 85.2104 48.261 74.3469 49.336ZM84.2859 54.7923C99.5115 57.4157 111.466 68.9444 114.592 84.0179C115.127 86.5961 115.268 88.5409 115.374 94.7346C115.513 102.975 115.347 104.315 114.062 105.329C113.27 105.953 113.112 105.956 78.0033 105.956C43.1105 105.956 42.7321 105.95 41.9594 105.34C40.6516 104.309 40.5258 103.318 40.6409 94.958C40.7308 88.4294 40.8548 86.6575 41.4079 84.0179C44.5442 69.0462 56.4141 57.5095 71.4522 54.8174C74.7403 54.2287 80.9443 54.2168 84.2859 54.7923ZM131.613 61.3851C140.689 63.7038 147.883 70.9476 150.212 80.1136C150.731 82.1522 150.827 83.5163 150.827 88.8357C150.827 93.3327 150.722 95.2464 150.461 95.5079C150.187 95.7828 146.395 95.8745 135.27 95.8745H120.445L120.266 90.6045C120.005 82.9658 118.829 78.28 115.594 72.001C114.806 70.4698 113.439 68.2091 112.557 66.9767L110.954 64.7364L111.953 64.1175C117.303 60.8019 125.093 59.7195 131.613 61.3851ZM37.2344 63.3076C39.8097 63.9626 43.8769 65.678 43.8769 66.1091C43.8769 66.2001 43.3132 67.1068 42.6239 68.1242C40.828 70.7756 38.2493 76.3272 37.3258 79.5301C36.1423 83.6336 35.6536 87.5349 35.6518 92.8958L35.6499 97.7075H20.7568C8.03739 97.7075 5.80972 97.6421 5.49283 97.2593C5.21647 96.9254 5.15462 95.0343 5.2506 89.8509C5.36577 83.6379 5.45444 82.6609 6.07664 80.7521C9.04381 71.649 16.2481 65.0551 25.4425 63.0265C28.5794 62.3346 33.908 62.4617 37.2344 63.3076Z"
                  fill="white"
                />
              </svg>