<svg
                width="155"
                height="155"
                viewBox="0 0 155 155"
                fill="none"
                xmlns="http://www.w3.org/2000/svg"
              >
                <path
                  fill-rule="evenodd"
                  clip-rule="evenodd"
                  d="M67.0778 4.24558C66.5989 6.58065 66.0579 8.67437 65.8754 8.89785C65.6932 9.12164 64.7947 9.53863 63.8789 9.82449C62.9632 10.1104 60.9606 10.9346 59.4285 11.6566L56.6434 12.9687L52.7685 10.4307L48.8939 7.89248L42.2611 14.5186L35.6283 21.1449L36.8877 24.0699C37.5803 25.6785 38.147 27.1012 38.147 27.2314C38.147 27.3616 37.1592 27.5518 35.9523 27.6538C31.0587 28.0681 26.6721 30.4734 23.7021 34.3704C20.6578 38.3647 19.8614 41.4913 20.0757 48.6031C20.1702 51.7392 20.3827 53.9383 20.6784 54.8371C21.6438 57.7714 23.0872 60.1025 25.3232 62.3401C26.5489 63.5662 27.5516 64.7987 27.5516 65.0788C27.5516 65.4767 26.796 65.7723 24.0887 66.4328L20.6261 67.2776L14.3641 63.6183L8.10221 59.959H4.0511H0L0.0771956 85.9004L0.154694 111.842L12.2638 115.886L24.3729 119.93L26.9331 119.848C29.3858 119.77 29.5011 119.735 29.6713 119.01C29.7694 118.593 29.9831 118.252 30.1469 118.252C30.3103 118.252 32.012 119.186 33.9282 120.327C37.4023 122.394 37.4135 122.404 37.7647 123.884C38.4779 126.887 41.115 129.455 43.8638 129.824C44.9711 129.972 45.0489 130.052 45.2012 131.188C45.5651 133.901 48.1377 136.549 51.0887 137.249C52.4954 137.582 52.678 137.714 52.678 138.402C52.678 138.83 53.0394 139.906 53.4814 140.793C54.419 142.675 56.1787 144.067 58.4879 144.754C59.9707 145.195 60.0443 145.269 60.4 146.67C60.9249 148.738 62.2463 150.44 64.1647 151.518C66.2465 152.689 69.055 152.806 70.993 151.802L72.2039 151.175L73.5659 152.386C75.4304 154.043 76.994 154.781 79.025 154.966C82.9553 155.322 86.3568 152.858 87.2755 148.989C87.611 147.576 87.6685 147.517 88.8888 147.334C91.6197 146.924 94.1702 144.308 94.8228 141.246C95.0738 140.068 95.2076 139.903 95.9169 139.898C98.6944 139.875 102.296 136.261 102.319 133.475C102.324 132.82 102.499 132.611 103.158 132.47C105.052 132.065 106.558 131.34 107.589 130.339C109.039 128.93 109.606 127.764 109.812 125.766L109.983 124.112L132.492 112.856L155 101.599V83.353V65.107H152.099H149.197L145.123 67.2583L141.048 69.4095L139.623 68.8108C138.84 68.4817 135.78 67.6198 132.825 66.8955C128.539 65.8453 127.452 65.4767 127.452 65.0743C127.452 64.7969 128.454 63.5662 129.68 62.3401C131.918 60.101 133.364 57.7632 134.323 54.8371C134.607 53.9704 134.833 51.741 134.926 48.906C135.107 43.3713 134.678 40.9475 132.867 37.2733C130.056 31.5687 123.874 27.5569 117.896 27.5569H116.597L117.989 24.3537L119.381 21.1507L112.745 14.5216L106.109 7.89248L102.235 10.4307L98.3599 12.9687L95.5748 11.6566C94.0427 10.9346 92.0402 10.1104 91.1244 9.82449C90.2087 9.53863 89.3102 9.12164 89.1279 8.89785C88.9454 8.67437 88.4044 6.58065 87.9255 4.24558L87.0548 0H77.5017H67.9485L67.0778 4.24558ZM83.8674 9.16676C84.3139 11.2941 84.7329 13.0744 84.7989 13.1235C84.8646 13.1725 86.2808 13.6055 87.9458 14.0858C89.6123 14.5664 92.6592 15.811 94.7248 16.8545C98.9987 19.0137 98.2752 19.0658 102.39 16.3052C103.84 15.3319 105.2 14.5355 105.412 14.5355C105.968 14.5355 113.226 21.8569 113.213 22.4044C113.207 22.6566 112.616 24.2259 111.901 25.8914C110.706 28.671 110.49 28.9793 109.263 29.6446C108.527 30.0434 107.262 30.917 106.452 31.586C105.16 32.6513 104.942 32.7397 104.694 32.297C103.919 30.9104 100.528 27.0515 98.7892 25.5755C93.9807 21.495 88.8258 19.0555 82.8354 18.0259C71.4964 16.0769 59.6217 20.5632 52.421 29.5168C51.415 30.7681 50.4617 32.0239 50.3031 32.3076C50.0427 32.7727 49.9047 32.7358 48.8936 31.9315C48.2772 31.4409 47.0094 30.5549 46.0764 29.9625C44.4744 28.946 44.3073 28.7195 43.0797 25.9032C42.3647 24.2628 41.7798 22.7054 41.7798 22.4422C41.7798 21.8687 49.0165 14.5355 49.582 14.5355C49.799 14.5355 51.1634 15.3319 52.6138 16.3052C56.7282 19.0658 56.0047 19.0137 60.2786 16.8545C62.3441 15.811 65.391 14.5664 67.0576 14.0858C68.7226 13.6055 70.1348 13.1761 70.1959 13.1319C70.2571 13.0877 70.6364 11.5115 71.039 9.62978C71.4417 7.74773 71.8443 5.96622 71.9342 5.67127C72.084 5.17919 72.5542 5.14133 77.5767 5.21704L83.0561 5.29941L83.8674 9.16676ZM82.648 23.0676C90.0261 24.4593 96.6011 29.0011 100.919 35.6892L101.771 37.0083L100.913 39.6259C100.105 42.09 100.055 42.5467 100.062 47.3918C100.07 53.296 100.448 55.2171 102.234 58.4346C102.838 59.5229 104.263 61.3338 105.402 62.4591C106.54 63.5844 107.472 64.746 107.472 65.0404C107.472 65.4807 106.583 65.7962 102.477 66.8158L97.4817 68.0562L92.4867 66.8158C88.3272 65.7832 87.4917 65.4843 87.4917 65.0283C87.4917 64.727 88.3433 63.6834 89.3837 62.7095C91.6018 60.6331 93.2992 57.9237 94.2371 54.9624C94.8213 53.1179 94.9085 52.1737 94.9076 47.6947C94.9067 43.5626 94.7968 42.1881 94.3506 40.7297C92.385 34.3065 87.3667 29.4238 81.2515 27.9854C78.5364 27.3468 74.4359 27.5548 71.8337 28.4633C66.7197 30.2487 62.5166 34.5461 60.8214 39.7219C60.1635 41.7315 60.0948 42.4561 60.0948 47.3918C60.0948 52.1822 60.1763 53.0994 60.7663 54.9624C61.7041 57.9237 63.4015 60.6331 65.6196 62.7095C66.6604 63.6834 67.5117 64.727 67.5117 65.0283C67.5117 65.4843 66.6761 65.7832 62.5166 66.8158L57.5216 68.0562L52.5266 66.8158C48.5566 65.8301 47.5316 65.4719 47.5316 65.0697C47.5316 64.7918 48.4619 63.6301 49.5986 62.4885C50.7354 61.3471 52.1612 59.5229 52.7667 58.4346C54.5549 55.2213 54.9372 53.289 54.9209 47.5433C54.9079 42.8259 54.8573 42.4013 54.0173 39.9448L53.1275 37.3433L54.0381 35.8367C59.9465 26.061 71.405 20.9466 82.648 23.0676ZM41.7138 33.3787C44.7828 34.5079 47.7762 37.5128 49.084 40.777C49.7324 42.3953 49.7936 43.0003 49.7975 47.8461L49.8021 53.1455L48.7755 55.2468C47.6445 57.5616 45.6577 59.7455 43.6633 60.8663L42.3686 61.5939L42.4524 65.5276L42.5366 69.461L46.618 70.4833C48.8627 71.0457 50.7496 71.5559 50.8111 71.6174C50.8725 71.6789 50.584 72.1813 50.1699 72.7333C48.5297 74.9212 47.6203 77.6345 47.4514 80.8456L47.3802 82.2002L43.7475 83.0272C41.7495 83.4817 40.0467 83.8605 39.9634 83.8687C39.8802 83.8769 39.855 82.6886 39.9074 81.2287L40.0028 78.5735L33.502 74.7928C29.9265 72.7133 27.1589 70.9264 27.3521 70.8213C27.5449 70.7165 28.7585 70.3849 30.0491 70.0845L32.3952 69.5385V65.5373V61.5361L30.8976 60.5749C28.8442 59.2568 27.3572 57.5285 26.2311 55.1511C25.3023 53.19 25.279 53.0328 25.18 48.0765C25.0967 43.9039 25.1709 42.7259 25.5999 41.4144C26.3697 39.0594 27.4147 37.4274 29.1669 35.8428C32.671 32.6743 37.3191 31.7613 41.7138 33.3787ZM81.2758 33.2152C85.3789 34.6427 88.6423 38.3583 89.6053 42.6981C89.8366 43.7407 89.9344 46.0058 89.8666 48.7545C89.767 52.7972 89.6919 53.2878 88.9197 54.9412C87.8114 57.3135 86.2656 59.1562 84.2743 60.479L82.648 61.5588V65.5349V69.511L89.8378 71.2894C97.4868 73.1818 99.3438 73.8931 100.632 75.4248C102.272 77.3738 102.428 78.1236 102.453 84.1849L102.477 89.7871L101.346 89.8807C100.616 89.9412 97.3936 89.1727 92.2624 87.7149C87.8883 86.4721 83.6292 85.3625 82.7976 85.249C81.966 85.1357 78.4931 84.1764 75.0798 83.1174C67.4899 80.763 67.0685 80.6548 63.9697 80.2724C61.6357 79.9844 57.8825 80.1546 53.8029 80.7336L52.3544 80.9389L52.5654 79.6095C53.0119 76.7929 54.3139 74.8964 56.5771 73.7665C57.3463 73.3822 61.2113 72.2679 65.1655 71.2894L72.3553 69.511V65.5237V61.5361L70.8577 60.5749C68.8043 59.2568 67.3173 57.5285 66.1911 55.1511L65.2412 53.1455V47.5275V41.9095L66.3813 39.6023C69.1809 33.9356 75.5264 31.2144 81.2758 33.2152ZM121.242 33.2342C124.384 34.2239 126.913 36.5259 128.592 39.9236L129.722 42.2123V47.6789V53.1455L128.772 55.1511C127.646 57.5285 126.159 59.2568 124.106 60.5749L122.608 61.5361V65.5276V69.5191L128.663 71.0121C133.254 72.144 134.626 72.5876 134.339 72.8472C133.938 73.2096 107.928 86.9103 107.64 86.9103C107.548 86.9103 107.47 85.1048 107.468 82.8979C107.464 77.7184 106.88 75.469 104.832 72.7333C104.419 72.1813 104.131 71.6789 104.192 71.6174C104.254 71.5559 106.141 71.0457 108.385 70.4833L112.467 69.461L112.551 65.5276L112.635 61.5939L111.34 60.8663C109.339 59.7416 107.355 57.5567 106.239 55.2468C105.251 53.2033 105.22 53.021 105.102 48.6177C104.922 41.8823 105.726 39.2096 108.852 36.1571C112.271 32.8182 116.646 31.7861 121.242 33.2342ZM15.8233 70.2747C20.686 73.117 24.6926 75.4705 24.7265 75.5044C24.8164 75.5941 15.8336 111.452 15.6837 111.601C15.6144 111.671 13.2159 110.95 10.3536 109.999L5.1497 108.27V86.6886V65.107H6.06576C6.70391 65.107 9.66217 66.6738 15.8233 70.2747ZM149.854 84.5643V98.5711L128.88 109.06L107.906 119.549L96.8666 109.588C84.1947 98.1547 83.4802 97.6605 79.6271 97.6605C76.8063 97.6605 76.0961 97.9442 70.5619 101.28C64.5225 104.922 64.0554 105.14 62.8178 104.908C60.6255 104.496 59.4346 102.039 60.3573 99.8299C60.7826 98.8115 61.3263 98.4851 68.9296 94.6804C77.4015 90.4409 79.4612 89.7096 81.8292 90.0996C82.5294 90.2147 86.8844 91.3839 91.5071 92.6978C97.251 94.3304 100.414 95.0844 101.497 95.0798C102.995 95.0735 104.35 94.4033 126.241 82.8394C138.978 76.111 149.502 70.5951 149.627 70.5817C149.752 70.5687 149.854 76.8608 149.854 84.5643ZM34.9069 81.4564C35.0846 81.6133 25.9383 114.587 25.6053 114.989C25.4673 115.156 20.5888 113.404 20.5888 113.187C20.5888 112.93 28.9919 79.1438 29.2123 78.516C29.2974 78.2735 30.2564 78.6786 32.0038 79.6949C33.4678 80.5464 34.7743 81.3389 34.9069 81.4564ZM64.6357 85.3922C66.7185 85.7308 71.7498 87.217 71.7498 87.4938C71.7498 87.5956 68.8615 89.1073 65.3314 90.8527C56.2644 95.3366 55.2657 96.3714 55.2563 101.294C55.2503 104.499 55.7337 105.746 57.7396 107.7C59.2611 109.182 61.2073 109.926 63.5544 109.922C65.6011 109.918 66.7545 109.406 72.5067 105.95C74.8377 104.549 77.126 103.235 77.5916 103.03C78.6811 102.55 80.571 102.553 81.6463 103.036C82.9172 103.606 103.91 122.501 104.527 123.631C105.539 125.481 104.251 127.489 102.05 127.489C101.001 127.489 100.282 126.973 93.8178 121.591C89.9223 118.347 86.6667 115.697 86.5835 115.703C86.3973 115.715 83.5562 119.194 83.5562 119.409C83.5562 119.494 86.4512 121.967 89.9892 124.904C96.4966 130.306 97.4772 131.311 97.4802 132.584C97.4826 133.665 95.9148 135.059 94.6963 135.059C93.4179 135.059 93.4781 135.102 85.6826 128.6L79.1812 123.178L77.5919 124.955C76.7179 125.932 75.9995 126.803 75.9953 126.89C75.9914 126.977 78.9314 129.496 82.5291 132.488C86.1267 135.479 89.2599 138.197 89.4918 138.529C90.1708 139.498 90.0146 140.915 89.1382 141.739C88.0541 142.758 86.3537 142.682 84.8467 141.547C82.573 139.836 78.7126 136.502 78.7126 136.249C78.7126 136.107 78.1459 135.445 77.4529 134.779C76.2671 133.64 74.1393 132.637 72.9069 132.637C72.5045 132.637 72.3553 132.407 72.3553 131.787C72.3553 131.321 71.9938 130.213 71.5518 129.326C70.6143 127.443 68.8545 126.051 66.5453 125.364C65.0711 124.926 64.9875 124.843 64.6433 123.488C64.4453 122.708 63.9198 121.52 63.4754 120.849C62.6174 119.552 59.9559 117.806 58.8297 117.801C57.907 117.797 57.3358 117.125 57.1069 115.774C56.598 112.77 53.0861 110.115 49.6646 110.147C46.9416 110.173 45.4446 111.015 41.9971 114.464L38.982 117.48L35.3762 115.323C33.3927 114.137 31.7029 113.058 31.6211 112.925C31.4825 112.701 37.9206 89.7611 38.2009 89.4806C38.3178 89.3641 55.1737 85.6033 56.9162 85.3053C58.3992 85.0515 62.849 85.1015 64.6357 85.3922ZM50.9573 115.425C51.979 115.969 52.3553 116.633 52.3656 117.911C52.3743 118.976 52.1452 119.32 49.8777 121.649C48.5043 123.059 46.9958 124.414 46.5256 124.659C44.7402 125.59 42.6274 124.234 42.6274 122.157C42.6274 121.115 42.885 120.763 45.6383 118.045C48.7864 114.937 49.4388 114.616 50.9573 115.425ZM58.9744 123.258C59.7403 123.971 60.0824 125.081 59.8357 126.05C59.7403 126.425 58.3811 128.006 56.8151 129.563C54.2534 132.111 53.8562 132.394 52.8505 132.394C50.9116 132.394 49.6562 130.67 50.2607 128.838C50.4551 128.248 51.672 126.805 53.2865 125.247C55.724 122.897 56.1003 122.643 57.1514 122.643C57.9025 122.643 58.5494 122.861 58.9744 123.258ZM66.7582 131.182C68.1565 132.844 67.7124 133.882 64.0954 137.406C61.7426 139.698 61.4305 139.904 60.3101 139.904C59.3183 139.904 58.942 139.729 58.3054 138.973C56.9134 137.318 57.1735 136.55 60.1705 133.469C63.8017 129.735 65.1479 129.267 66.7582 131.182ZM74.0702 138.441C75.6641 139.929 75.2524 141.285 72.2717 144.365C69.058 147.686 67.7717 148.164 66.0213 146.691C65.2718 146.06 65.0898 145.674 65.0898 144.716C65.0898 143.638 65.3223 143.282 67.5216 140.99C70.9512 137.417 72.378 136.862 74.0702 138.441ZM81.8089 145.809C82.0965 146.143 82.335 146.883 82.3386 147.456C82.3547 149.927 79.6571 150.727 77.2586 148.963C76.5599 148.449 75.988 147.929 75.988 147.808C75.988 147.687 76.3943 147.199 76.8905 146.723C77.3869 146.248 78.158 145.332 78.6039 144.688L79.4146 143.518L80.3503 144.361C80.8647 144.824 81.521 145.476 81.8089 145.809Z"
                  fill="white"
                />
              </svg>