<svg width="24" height="31" viewBox="0 0 24 31" fill="none" xmlns="http://www.w3.org/2000/svg">
<path fill-rule="evenodd" clip-rule="evenodd" d="M9.99308 0C8.80155 0 7.80765 1.01604 7.7036 2.34044C7.48607 5.10945 7.43102 7.89083 7.53862 10.6667C7.40873 10.6764 7.27887 10.6866 7.14902 10.6971L4.85495 10.8837C3.38864 11.003 2.56896 12.8274 3.36058 14.2096C5.04886 17.1579 7.22427 19.7207 9.77083 21.762L10.6898 22.4985C11.4351 23.0959 12.4387 23.0959 13.1838 22.4985L14.103 21.762C16.6495 19.7207 18.825 17.1579 20.5131 14.2096C21.3048 12.8274 20.4851 11.003 19.0189 10.8837L16.7248 10.6971C16.595 10.6866 16.465 10.6764 16.3351 10.6667C16.4428 7.89083 16.3877 5.10945 16.1702 2.34042C16.0661 1.01604 15.0722 0 13.8807 0H9.99308ZM9.90621 11.7971C9.73109 8.72579 9.76375 5.64391 10.004 2.57778H13.8697C14.1101 5.64391 14.1427 8.72579 13.9676 11.7971C13.9479 12.1415 14.0529 12.4802 14.2589 12.7377C14.4648 12.9949 14.7546 13.1494 15.0636 13.1663C15.5615 13.1938 16.0593 13.2276 16.5568 13.2682L18.2229 13.4036C16.745 15.8324 14.8945 17.9536 12.755 19.6683L11.9369 20.3241L11.1186 19.6683C8.97919 17.9536 7.12875 15.8324 5.65091 13.4036L7.31699 13.2682C7.81444 13.2276 8.31221 13.1938 8.81022 13.1663C9.11904 13.1494 9.40889 12.9949 9.61497 12.7377C9.82089 12.4802 9.92577 12.1415 9.90621 11.7971Z" fill="white"/>
<path d="M2.31024 23.6287C2.31024 22.9169 1.79307 22.3398 1.15512 22.3398C0.51717 22.3398 0 22.9169 0 23.6287V27.0658C0 28.7267 1.20671 30.0732 2.69528 30.0732H21.1772C22.6657 30.0732 23.8725 28.7267 23.8725 27.0658V23.6287C23.8725 22.9169 23.3553 22.3398 22.7173 22.3398C22.0794 22.3398 21.5622 22.9169 21.5622 23.6287V27.0658C21.5622 27.3031 21.3899 27.4954 21.1772 27.4954H2.69528C2.48263 27.4954 2.31024 27.3031 2.31024 27.0658V23.6287Z" fill="white"/>
</svg>
