<svg width="77" height="85" viewBox="0 0 77 85" fill="none" xmlns="http://www.w3.org/2000/svg">
<path fill-rule="evenodd" clip-rule="evenodd" d="M22.5902 0.137938C21.48 0.399844 19.862 1.34646 19.0744 2.19509C18.6739 2.62675 18.0919 3.51276 17.7815 4.16363L17.2168 5.34735L17.1679 22.2103L17.1189 39.0731L15.7647 40.5508C10.0011 46.839 5.82999 54.5931 3.76397 62.8599C3.25585 64.8937 0 82.9903 0 83.7816C0 84.3231 0.793044 85 1.4273 85C2.62623 85 2.64925 84.9279 4.0819 76.6715C5.98253 65.7184 6.4646 63.4254 7.55417 60.1581C8.63749 56.9095 9.73401 54.3857 11.197 51.7745C12.4213 49.5892 14.6095 46.3604 16.0473 44.6173L17.1276 43.3079V48.8811C17.1276 54.1773 17.1451 54.4729 17.4784 54.8282C17.6714 55.0339 17.9984 55.2556 18.2052 55.3208C18.7322 55.4869 19.5412 55.1114 19.7806 54.5893C19.9273 54.2698 19.9822 47.6485 19.9822 30.3009C19.9822 12.0938 20.0336 6.27908 20.1992 5.72231C20.4887 4.74893 21.9667 3.28098 22.9467 2.99338C24.0072 2.68222 61.6308 2.68222 62.6913 2.99338C63.6713 3.28098 65.1493 4.74893 65.4389 5.72231C65.5989 6.26012 65.6558 9.2972 65.6558 17.2848V28.1179H65.1268C64.1727 28.1179 60.9909 28.8078 60.2075 29.1843C59.2485 29.6454 58.0697 30.8993 57.5743 31.9852C57.2892 32.6104 57.1969 33.1618 57.1991 34.2314C57.2019 35.7819 57.5397 36.7285 58.4958 37.866L58.9991 38.4648L58.395 39.2507C57.4726 40.4512 57.2205 41.1678 57.1998 42.6485C57.1709 44.7229 58.0162 46.2945 59.7648 47.4169L60.7912 48.0759L60.4141 48.7734C60.1115 49.3328 60.0389 49.7689 60.0467 50.9771C60.0574 52.6274 60.3734 53.5252 61.3618 54.7162C62.0119 55.4996 63.691 56.3995 64.8084 56.5634L65.6558 56.6878V64.7542C65.6558 70.5693 65.5953 73.0241 65.4389 73.5499C65.1493 74.5232 63.6713 75.9912 62.6913 76.2788C62.1391 76.4408 58.0587 76.4943 46.2406 76.4943H30.5244L30.7608 75.8289C30.8907 75.4628 31.135 74.3265 31.3034 73.3037C31.9084 69.6287 32.3243 68.5345 33.3416 67.9396C33.6961 67.7325 35.4832 67.383 38.5724 66.917C45.123 65.9287 46.1926 65.558 48.0506 63.6322C50.0795 61.5291 51.0028 57.9332 50.1097 55.6122C50.0101 55.3533 49.9107 54.4517 49.889 53.6089C49.8536 52.2421 49.7782 51.9334 49.1916 50.7543C48.398 49.1597 47.358 48.151 45.7057 47.3736C44.6265 46.8658 44.3539 46.813 42.819 46.8146C41.3437 46.8162 40.9871 46.88 40.0661 47.3067C37.6804 48.4122 36.3896 50.0632 35.788 52.7782C35.6886 53.2272 35.6154 53.2559 34.3002 53.3627C31.252 53.6103 27.801 54.2791 26.0036 54.9705C25.7075 55.0844 25.6914 54.1309 25.6914 36.4574V17.824L25.2534 17.3892C24.6741 16.8136 23.8541 16.8136 23.2748 17.3892L22.8368 17.824V37.0213V56.2187L21.1865 56.9049C17.1849 58.569 14.6835 60.1275 12.7442 62.1651C9.95328 65.0976 8.04569 68.8967 7.41037 72.7879C6.99627 75.3246 7.03909 76.4136 7.57451 76.9453C8.14114 77.5082 8.97415 77.5204 9.5242 76.9741C9.87157 76.6291 9.95132 76.3112 10.0535 74.8674C10.3635 70.4882 12.2059 66.6147 15.4006 63.6262C16.2216 62.858 17.4479 61.9032 18.1256 61.5045C19.9369 60.4386 26.3651 57.7666 28.5373 57.1765C31.082 56.4852 32.0729 56.3658 39.5641 55.847C45.5328 55.4337 46.0749 55.4208 46.5808 55.6807C48.421 56.6258 47.6419 60.6247 45.2877 62.3186C44.1635 63.1273 43.3887 63.3247 38.3202 64.0934C35.6986 64.4909 33.1942 64.938 32.7548 65.0867C32.3152 65.2353 31.5887 65.678 31.1401 66.0701C29.6866 67.3409 29.2459 68.4296 28.5651 72.4312C28.3754 73.5451 28.0502 74.9067 27.8422 75.4569C26.9944 77.6987 25.1703 79.7691 23.0573 80.8877C21.8225 81.5415 19.5792 82.1648 18.4612 82.1648C17.3936 82.1648 16.7708 82.6871 16.7708 83.5824C16.7708 84.1156 16.8784 84.3504 17.2614 84.6525C17.6923 84.9926 17.9044 85.0285 19.0009 84.9479C22.5926 84.684 26.4256 82.7263 28.3676 80.1643L28.992 79.3405L37.4666 79.3433L45.9412 79.3462L44.96 79.8636C42.7296 81.0393 38.1278 82.1648 35.5499 82.1648C34.3346 82.1648 33.72 82.6409 33.72 83.5824C33.72 84.1152 33.8279 84.3509 34.2106 84.6537C34.6677 85.0156 34.8274 85.0347 36.5417 84.9335C41.2449 84.6557 46.1468 82.9491 49.877 80.2908L51.1957 79.3513L57.1322 79.296L63.0688 79.2409L64.2606 78.6801C65.919 77.8998 66.9523 76.8951 67.7548 75.2827L68.4212 73.944L68.4737 65.3188L68.5261 56.6936L69.3136 56.5864C71.106 56.3424 72.8562 55.055 73.6937 53.3647C74.3078 52.1252 74.3138 49.8589 73.7062 48.6316C73.1804 47.5698 72.1359 46.4951 71.1493 46.0009C70.7283 45.79 70.3673 45.6043 70.3472 45.5882C70.327 45.5718 70.5243 45.1232 70.7859 44.5909C71.1836 43.7812 71.2598 43.3917 71.2524 42.2055C71.2425 40.6235 71.0137 39.9575 70.0487 38.7019L69.4316 37.8988L69.8669 37.4925C70.1063 37.269 70.521 36.6433 70.7882 36.1018C71.198 35.2716 71.2728 34.8956 71.2648 33.6998C71.2533 31.9699 70.8071 30.9207 69.5506 29.6684C69.086 29.2054 68.7281 28.8267 68.7554 28.8267C68.7825 28.8267 69.722 28.6653 70.8432 28.4679C74.1941 27.878 75.5715 27.0006 76.5859 24.8095C77.152 23.5863 77.1352 21.4421 76.5506 20.321C75.8541 18.9856 75.1802 18.2801 74.0075 17.6594C73.0332 17.1436 72.7122 17.0647 71.5461 17.0544C70.8087 17.048 69.8289 17.1108 69.3688 17.1941L68.5322 17.3456L68.4767 11.3366L68.4212 5.32768L67.7548 3.98926C66.9523 2.37707 65.9188 1.37233 64.2606 0.592109L63.0688 0.0312618L43.1758 0.00290941C31.5441 -0.0137477 22.9952 0.0424255 22.5902 0.137938ZM23.2748 6.04818C22.3897 6.92711 23.0168 8.44839 24.2641 8.44839C24.9976 8.44839 25.6914 7.75925 25.6914 7.03077C25.6914 6.30229 24.9976 5.61315 24.2641 5.61315C23.9166 5.61315 23.5508 5.77387 23.2748 6.04818ZM28.984 6.04818C28.0989 6.92711 28.726 8.44839 29.9733 8.44839C30.7068 8.44839 31.4006 7.75925 31.4006 7.03077C31.4006 6.30229 30.7068 5.61315 29.9733 5.61315C29.6258 5.61315 29.26 5.77387 28.984 6.04818ZM34.6932 6.04818C34.4119 6.32745 34.2552 6.68452 34.2552 7.04654C34.2552 8.14538 33.8431 9.04681 32.9232 9.96064C31.6962 11.1793 31.2397 11.2836 27.1346 11.2836C23.7394 11.2836 23.7092 11.287 23.2748 11.7187C22.6891 12.3003 22.6951 13.1083 23.2894 13.6986L23.7423 14.1481L27.7052 14.0893L31.6682 14.0303L32.86 13.4694C34.4734 12.7103 35.5441 11.6866 36.3052 10.1758C36.6495 9.49194 36.9314 8.82353 36.9314 8.69045C36.9314 8.48844 38.8322 8.44839 48.439 8.44839H59.9466V16.7434C59.9466 24.8315 59.9557 25.0482 60.3084 25.4242C60.9771 26.1373 61.9664 26.0822 62.5725 25.2981C62.7368 25.0854 62.7912 22.755 62.7955 15.75L62.8012 6.48304L62.3632 6.04818L61.9254 5.61315H48.5282H35.131L34.6932 6.04818ZM39.7849 19.9474C38.1004 20.4845 36.8402 21.8453 36.4854 23.5106C36.1781 24.9525 35.7173 25.3317 34.0317 25.5306C32.5198 25.7087 31.1712 26.668 30.3947 28.1179C30.0923 28.6825 30.0625 29.2075 30.0625 33.9656C30.0625 38.9872 30.0777 39.2209 30.4482 39.9019C30.903 40.7374 31.7778 41.5922 32.6495 42.0528C33.2195 42.354 33.837 42.3873 39.7412 42.4354L46.2085 42.4878L46.6547 42.0446C47.2424 41.4609 47.2458 40.65 46.6629 40.0711L46.2251 39.6361H40.2313C33.7289 39.6361 33.4698 39.6012 33.0411 38.6664C32.7071 37.9383 32.7464 29.8517 33.0871 29.1972C33.3794 28.636 33.9541 28.3704 35.1924 28.2244C37.0945 28.0002 38.7184 26.536 39.1426 24.6625C39.5578 22.8295 39.9273 22.6246 42.819 22.6246C45.7107 22.6246 46.0795 22.8289 46.4956 24.6625C46.922 26.5404 48.5391 27.9997 50.4431 28.2242C51.684 28.3704 52.2585 28.6357 52.5509 29.1972C52.8917 29.8517 52.9309 37.9383 52.5969 38.6664C52.3514 39.2018 51.6082 39.6361 50.9375 39.6361C50.6829 39.6361 50.2775 39.8319 50.0367 40.0711C49.4476 40.6562 49.457 41.4606 50.0601 42.0597C50.4733 42.4701 50.6199 42.5077 51.4672 42.4208C53.0535 42.2582 54.4049 41.3438 55.1898 39.9019C55.5603 39.2209 55.5755 38.9872 55.5755 33.9656C55.5755 29.2075 55.5457 28.6825 55.2433 28.1179C54.4669 26.668 53.1182 25.7087 51.6064 25.5306C49.9207 25.3317 49.4604 24.9529 49.1523 23.5106C48.8604 22.1437 47.8911 20.9066 46.5657 20.2093C46.0436 19.9347 45.4731 19.8746 43.0866 19.8429C41.5166 19.822 40.0308 19.8689 39.7849 19.9474ZM72.9285 20.2629C73.8376 20.9371 74.1304 21.5125 74.1304 22.6246C74.1304 23.7286 73.8369 24.3127 72.9527 24.9683C72.6255 25.2109 69.2817 25.9915 68.5695 25.9915C68.537 25.9915 68.5104 24.6869 68.5104 23.0924V20.1932L69.6255 20.007C71.159 19.7506 72.3636 19.844 72.9285 20.2629ZM41.4165 27.7895C39.3723 28.374 37.8235 30.43 37.8235 32.5598C37.8235 34.6046 39.3765 36.6954 41.3104 37.2538C45.2217 38.3831 48.694 34.9344 47.5569 31.0495C47.1471 29.6493 45.7876 28.2705 44.4187 27.8668C43.3657 27.5562 42.327 27.5294 41.4165 27.7895ZM44.3189 31.1206C44.7874 31.5861 44.8708 31.8014 44.8708 32.548C44.8708 33.3046 44.7896 33.5079 44.2875 34.0065C43.7855 34.5052 43.5808 34.5858 42.819 34.5858C42.0572 34.5858 41.8526 34.5052 41.3505 34.0065C40.8504 33.5098 40.7673 33.3032 40.7673 32.5588C40.7673 31.648 41.222 30.928 42.0162 30.5816C42.6832 30.2906 43.7298 30.5355 44.3189 31.1206ZM67.0849 31.3519C68.0656 32.0148 68.4212 32.6348 68.4212 33.6815C68.4212 34.7176 67.9065 35.6694 67.0854 36.151C66.5648 36.4565 63.801 36.9766 62.6938 36.9775C61.7088 36.9782 60.8522 36.3857 60.3315 35.3437C59.7645 34.2085 59.9166 33.2878 60.8324 32.3125C61.4287 31.6777 61.6569 31.5707 62.9975 31.2959C65.1878 30.8468 66.3616 30.863 67.0849 31.3519ZM67.0849 39.8576C68.0656 40.5205 68.4212 41.1405 68.4212 42.1873C68.4212 43.2234 67.9065 44.1751 67.0854 44.6568C66.5648 44.9623 63.801 45.4824 62.6938 45.4832C61.4066 45.4841 60.1805 44.3736 60.0009 43.044C59.881 42.1559 60.439 40.887 61.1596 40.4092C61.7532 40.0157 64.1488 39.5005 65.4956 39.4766C66.2587 39.4631 66.6346 39.5532 67.0849 39.8576ZM70.0482 48.5958C70.9839 49.2908 71.2758 49.8568 71.2758 50.9771C71.2758 52.0973 70.9839 52.6633 70.0482 53.3583C69.631 53.6681 69.2396 53.7329 67.4771 53.7843C65.0237 53.8557 64.2812 53.6775 63.5402 52.8393C62.6069 51.7837 62.5766 50.2395 63.4685 49.1868C64.2437 48.2719 64.7623 48.1362 67.2938 48.1859C69.2583 48.2246 69.6209 48.2784 70.0482 48.5958ZM44.0932 49.7652C44.9799 50.029 46.1237 51.0026 46.5717 51.8751C47.0288 52.7647 47.0235 52.7829 46.3427 52.6626C46.0237 52.6061 44.1973 52.6748 42.2838 52.8152C40.3703 52.9555 38.7771 53.0436 38.7432 53.011C38.7093 52.9784 38.7391 52.6919 38.8092 52.3745C38.9724 51.6361 40.555 50.0531 41.3917 49.791C42.2361 49.5267 43.259 49.5169 44.0932 49.7652ZM60.3846 57.7914L59.9466 58.2263V64.5251V70.8238H47.5389H35.131L34.6932 71.2588C34.1137 71.8342 34.1137 72.6486 34.6932 73.224L35.131 73.659H48.5282H61.9254L62.3632 73.224L62.8012 72.7891V65.5077V58.2263L62.3632 57.7914C62.0872 57.5171 61.7215 57.3564 61.3739 57.3564C61.0264 57.3564 60.6606 57.5171 60.3846 57.7914Z" fill="white"/>
</svg>
