<svg width="67" height="67" viewBox="0 0 67 67" fill="none" xmlns="http://www.w3.org/2000/svg">
<path d="M46.2559 31.2086L38.1106 21.0269C37.6723 20.4795 37.1166 20.0376 36.4846 19.7337C35.8527 19.4299 35.1605 19.2719 34.4592 19.2715H5.15484C3.91331 19.2715 2.72263 19.7647 1.84473 20.6426C0.96683 21.5205 0.473633 22.7112 0.473633 23.9527V61.4024C0.473633 62.6439 0.96683 63.8346 1.84473 64.7125C2.72263 65.5904 3.91331 66.0836 5.15484 66.0836H42.6045C43.8461 66.0836 45.0368 65.5904 45.9146 64.7125C46.7925 63.8346 47.2857 62.6439 47.2857 61.4024V34.1343C47.2849 33.0704 46.9217 32.0385 46.2559 31.2086ZM16.8579 23.9527H30.9015V30.9745H16.8579V23.9527ZM30.9015 61.4024H16.8579V47.3588H30.9015V61.4024ZM35.5827 61.4024V47.3588C35.5827 46.1172 35.0895 44.9265 34.2116 44.0486C33.3337 43.1707 32.143 42.6775 30.9015 42.6775H16.8579C15.6163 42.6775 14.4257 43.1707 13.5478 44.0486C12.6699 44.9265 12.1767 46.1172 12.1767 47.3588V61.4024H5.15484V23.9527H12.1767V30.9745C12.1767 32.216 12.6699 33.4067 13.5478 34.2846C14.4257 35.1625 15.6163 35.6557 16.8579 35.6557H30.9015C32.143 35.6557 33.3337 35.1625 34.2116 34.2846C35.0895 33.4067 35.5827 32.216 35.5827 30.9745V25.3571L42.6045 34.1343V61.4024H35.5827Z" fill="white"/>
<path d="M61.3293 42.6778H54.3074V37.9966H61.3293V5.22809H14.5171V12.2499H9.83594V5.22809C9.83594 3.98655 10.3291 2.79587 11.207 1.91797C12.0849 1.04007 13.2756 0.546875 14.5171 0.546875H61.3293C62.5708 0.546875 63.7615 1.04007 64.6394 1.91797C65.5173 2.79587 66.0105 3.98655 66.0105 5.22809V37.9966C66.0105 39.2381 65.5173 40.4288 64.6394 41.3067C63.7615 42.1846 62.5708 42.6778 61.3293 42.6778Z" fill="white"/>
<path d="M56.6481 9.90918H42.6045V14.5904H56.6481V9.90918Z" fill="white"/>
<path d="M56.6486 19.2715H47.2861V23.9527H56.6486V19.2715Z" fill="white"/>
</svg>
