<svg width="69" height="78" viewBox="0 0 69 78" fill="none" xmlns="http://www.w3.org/2000/svg">
<path fill-rule="evenodd" clip-rule="evenodd" d="M0.817973 0.151125C0.637949 0.223488 0.380357 0.440121 0.245377 0.632379C0.0221405 0.95032 0 3.55083 0 29.4701V57.9586L6.5276 64.4912C10.2153 68.1817 13.269 71.1163 13.5466 71.2365C13.9587 71.4149 17.2034 71.4492 33.6638 71.4492H53.2897V73.2012V74.9531H50.7626C48.0033 74.9531 47.5431 75.0611 47.2117 75.7868C46.981 76.2919 46.981 76.6612 47.2117 77.1664C47.5893 77.9933 47.6533 78 55.112 78H61.9882L62.4834 77.5585C62.8932 77.1932 62.9788 77.0067 62.9788 76.4766C62.9788 75.9464 62.8932 75.7599 62.4834 75.3946L61.9882 74.9531H59.1659H56.3435V73.2175C56.3435 71.312 56.3511 71.2969 57.3241 71.2969C58.1682 71.2969 60.1755 70.7139 61.4902 70.0868C65.0447 68.3915 67.5154 65.7013 68.7165 62.2181C69.2654 60.6263 69.02 59.7165 67.9561 59.3984C67.4902 59.2591 67.3001 59.2731 66.9086 59.4752C66.3604 59.7579 66.1839 60.0388 65.8619 61.14C65.4637 62.5015 64.6083 63.8395 63.3044 65.1404C61.545 66.8958 59.5493 67.9145 57.2571 68.2273L56.3435 68.3519V66.878V65.4039L57.1537 65.2231C58.9121 64.8305 60.8466 63.6288 62.0478 62.1829C62.8557 61.2105 63.6546 59.5739 63.9114 58.3652C64.2262 56.883 64.2182 45.7625 63.9012 44.2559C63.2115 40.9785 60.5529 38.2433 57.2597 37.4228L56.4198 37.2135L56.3435 31.4919L56.2672 25.7702L55.9044 25.3852C55.4487 24.9015 54.7786 24.7476 54.1886 24.9915C53.3087 25.3552 53.2897 25.4952 53.2897 31.5935C53.2897 37.7816 53.4005 37.1795 52.2208 37.4025C51.9269 37.4581 51.1092 37.7787 50.4039 38.1149C48.0572 39.2332 46.1583 41.5863 45.574 44.1002C45.3718 44.9697 45.3426 46.1557 45.3852 51.7762C45.4344 58.2748 45.4434 58.445 45.787 59.3719C46.2597 60.6471 47.1818 62.0359 48.2103 63.022C49.2007 63.9714 51.0658 64.9582 52.3833 65.2296L53.2897 65.4164V66.8949V68.3734L52.6407 68.2983C51.339 68.1479 50.1297 67.778 48.7852 67.1193C46.1038 65.8055 44.124 63.5718 43.1993 60.8173C42.8626 59.8144 42.5378 59.4811 41.7534 59.3342C41.1239 59.2163 40.3609 59.7165 40.188 60.3604C39.8146 61.7515 41.545 65.0916 43.7826 67.2986L44.9032 68.4039L30.2771 68.365L15.651 68.3262L15.5702 62.3848C15.5256 59.117 15.4742 56.4252 15.4557 56.403C15.437 56.3809 15.1985 56.2269 14.9257 56.0608C14.4545 55.7741 14.1425 55.7589 8.74164 55.7584L3.05385 55.7578V29.4023V3.04688H28.1718H53.2897V8.31446V13.5821L53.736 14.0274C54.4648 14.7545 55.6237 14.5726 56.1091 13.6549C56.3343 13.2294 56.3565 12.5131 56.3143 7.03325L56.2672 0.888773L55.7685 0.444387L55.2698 0L28.2075 0.00959766C13.3232 0.0149297 0.997997 0.0786094 0.817973 0.151125ZM17.6074 12.8109C17.3398 12.889 16.9725 13.1407 16.7913 13.37C16.348 13.9309 16.4578 14.8622 17.0243 15.3483L17.424 15.6914L31.425 15.6881C44.465 15.6849 45.4495 15.6666 45.7694 15.4208C46.5003 14.8595 46.459 13.487 45.6958 12.9881C45.3144 12.7387 44.3718 12.719 31.6904 12.6948C23.6444 12.6794 17.8954 12.7268 17.6074 12.8109ZM10.4976 13.1138C10.0533 13.372 9.7346 14.1479 9.84087 14.7131C10.1559 16.3885 12.8262 16.1053 12.8262 14.3965C12.8262 13.6063 12.1516 12.9475 11.3492 12.9538C11.0278 12.9564 10.6445 13.0283 10.4976 13.1138ZM53.736 18.4219C52.9893 19.1668 53.1982 20.3438 54.1577 20.7981C55.3945 21.3836 56.6229 20.2731 56.1891 18.9618C55.8509 17.9394 54.5144 17.6452 53.736 18.4219ZM10.4976 24.6919C9.70299 25.1536 9.60832 26.4626 10.3214 27.1309L10.7131 27.498L27.6877 27.5433C39.5931 27.575 44.8337 27.5389 45.2357 27.4226C45.9288 27.2223 46.2963 26.7103 46.2963 25.9452C46.2963 25.4999 46.1925 25.283 45.8206 24.9515L45.3448 24.5273L28.0548 24.5319C16.5949 24.5351 10.6747 24.589 10.4976 24.6919ZM10.2742 36.793C9.79446 37.2717 9.74376 37.396 9.82408 37.8996C9.88195 38.2628 10.082 38.6175 10.3802 38.8857L10.846 39.3047H26.5784C43.4975 39.3047 42.9428 39.3295 43.3601 38.5513C43.6396 38.0303 43.5439 37.2197 43.1489 36.7615L42.7803 36.334L26.7975 36.2938L10.8147 36.2537L10.2742 36.793ZM57.5957 40.7818C59.4952 41.6736 60.8088 43.4894 61.0212 45.5177L61.1205 46.4648H59.2688C57.4591 46.4648 57.4064 46.4744 56.9414 46.889C56.5759 47.2148 56.4657 47.44 56.4657 47.8608C56.4657 49.1674 57.0755 49.5117 59.3897 49.5117H61.077V51.4922V53.4727H59.2471C57.4611 53.4727 57.4058 53.4829 56.9414 53.8968C56.5759 54.2226 56.4657 54.4478 56.4657 54.8686C56.4657 56.1781 57.074 56.5195 59.4071 56.5195H61.1116L61.0038 57.2372C60.6197 59.7932 58.6823 61.841 56.2082 62.3063C53.0359 62.9027 50.2054 61.6206 48.9944 59.0387C48.7481 58.5137 48.5049 57.732 48.4539 57.3018L48.3609 56.5195H49.9626C51.8282 56.5195 52.4491 56.3484 52.7598 55.7488C53.1205 55.0531 53.0441 54.423 52.5379 53.918C52.0939 53.4749 52.0822 53.4727 50.2476 53.4727H48.4035V51.4922V49.5117H50.0932C51.0368 49.5117 51.9301 49.4366 52.1164 49.3415C53.0805 48.8496 53.2871 47.6577 52.5379 46.9101C52.0933 46.4665 52.0843 46.4648 50.2266 46.4648H48.3617L48.44 45.4915C48.6272 43.1642 50.5424 40.9537 52.8901 40.3554C53.1518 40.2887 54.0875 40.2492 54.9693 40.2678C56.4116 40.2981 56.6753 40.3498 57.5957 40.7818ZM10.8412 48.0958C10.0418 48.3874 9.60909 49.36 9.93218 50.1383C10.3226 51.0787 9.53976 51.0352 26.0382 51.0352H41.0978L41.5441 50.5899C42.0318 50.1031 42.1208 49.507 41.8079 48.8219C41.4113 47.9532 42.0698 47.9872 25.9272 48.0003C17.7558 48.0069 10.9671 48.05 10.8412 48.0958ZM12.5208 62.4609C12.5208 64.4719 12.5031 66.1172 12.4814 66.1172C12.4597 66.1172 10.794 64.4719 8.77981 62.4609L5.11764 58.8047H8.81921H12.5208V62.4609Z" fill="white"/>
</svg>
